<?xml version="1.0" standalone="no"?>
<!DOCTYPE svg PUBLIC "-//W3C//DTD SVG 20010904//EN"
 "http://www.w3.org/TR/2001/REC-SVG-20010904/DTD/svg10.dtd">
<svg version="1.0" xmlns="http://www.w3.org/2000/svg"
 width="68.000000pt" height="68.000000pt" viewBox="0 0 68.000000 68.000000"
 preserveAspectRatio="xMidYMid meet">
<metadata>
Created by potrace 1.16, written by Peter Selinger 2001-2019
</metadata>
<g transform="translate(0.000000,68.000000) scale(0.100000,-0.100000)"
fill="#000000" stroke="none">
<path d="M263 563 c-13 -8 -23 -22 -23 -29 0 -8 -4 -14 -10 -14 -5 0 -10 -18
-10 -40 0 -22 5 -40 10 -40 6 0 10 -13 10 -29 0 -16 5 -31 11 -33 5 -2 10 -22
11 -45 0 -44 -18 -73 -46 -73 -13 0 -16 15 -16 96 0 69 -4 99 -14 110 -18 18
-34 18 -52 0 -15 -16 -20 -86 -5 -86 16 0 33 30 28 50 -3 13 0 20 9 20 11 0
14 -21 14 -100 0 -98 1 -101 25 -110 16 -6 23 -14 19 -25 -3 -8 -10 -15 -15
-15 -19 0 -8 -52 16 -75 25 -25 95 -36 95 -15 0 6 -12 10 -26 10 -26 0 -54 20
-54 39 0 13 53 3 58 -11 6 -14 40 -9 46 7 6 18 -2 45 -15 45 -20 0 -9 71 14
93 41 39 65 47 142 47 l75 0 0 45 c0 46 -14 61 -23 24 -8 -30 -78 -24 -92 9
-5 12 -17 22 -27 22 -9 0 -20 5 -23 10 -3 6 -15 10 -26 10 -10 0 -19 5 -19 10
0 6 9 10 20 10 11 0 20 5 20 10 0 6 -7 10 -15 10 -8 0 -15 5 -15 10 0 6 12 10
26 10 20 0 25 4 20 16 -3 9 -6 18 -6 20 0 2 -15 4 -34 4 -19 0 -38 5 -41 10
-9 14 -36 11 -62 -7z"/>
<path d="M380 270 c0 -5 -9 -10 -20 -10 -13 0 -20 -7 -20 -19 0 -10 9 -21 20
-24 14 -3 20 -14 20 -31 0 -14 4 -26 8 -26 4 0 16 -13 25 -30 16 -26 24 -30
63 -30 24 0 44 5 44 10 0 6 -12 10 -26 10 -49 0 -72 62 -34 90 12 8 20 26 20
42 0 27 -2 28 -50 28 -27 0 -50 -4 -50 -10z"/>
</g>
</svg>
