<?xml version="1.0" standalone="no"?>
<!DOCTYPE svg PUBLIC "-//W3C//DTD SVG 20010904//EN"
 "http://www.w3.org/TR/2001/REC-SVG-20010904/DTD/svg10.dtd">
<svg version="1.0" xmlns="http://www.w3.org/2000/svg"
 width="64.000000pt" height="62.000000pt" viewBox="0 0 64.000000 62.000000"
 preserveAspectRatio="xMidYMid meet">
<metadata>
Created by potrace 1.16, written by Peter Selinger 2001-2019
</metadata>
<g transform="translate(0.000000,62.000000) scale(0.100000,-0.100000)"
fill="#000000" stroke="none">
<path d="M284 541 c-57 -25 -85 -100 -58 -156 22 -47 54 -68 104 -68 50 0 82
21 105 69 21 45 10 97 -29 133 -26 25 -89 36 -122 22z"/>
<path d="M260 250 c-109 -20 -160 -60 -160 -127 l0 -43 230 0 230 0 0 43 c0
34 -6 49 -28 70 -50 48 -176 75 -272 57z"/>
</g>
</svg>
