<?xml version="1.0" standalone="no"?>
<!DOCTYPE svg PUBLIC "-//W3C//DTD SVG 20010904//EN"
 "http://www.w3.org/TR/2001/REC-SVG-20010904/DTD/svg10.dtd">
<svg version="1.0" xmlns="http://www.w3.org/2000/svg"
 width="64.000000pt" height="62.000000pt" viewBox="0 0 64.000000 62.000000"
 preserveAspectRatio="xMidYMid meet">
<metadata>
Created by potrace 1.16, written by Peter Selinger 2001-2019
</metadata>
<g transform="translate(0.000000,62.000000) scale(0.100000,-0.100000)"
fill="#000000" stroke="none">
<path d="M96 514 c-8 -20 -8 -298 0 -318 5 -13 23 -16 90 -16 46 0 84 -2 84
-5 0 -3 -9 -23 -20 -45 -11 -21 -17 -41 -12 -43 4 -3 42 -5 85 -5 84 0 92 6
62 58 -8 14 -14 28 -15 33 0 4 38 7 84 7 67 0 85 3 90 16 8 20 8 298 0 318 -5
14 -35 16 -224 16 -189 0 -219 -2 -224 -16z m414 -134 l0 -110 -190 0 -190 0
0 110 0 110 190 0 190 0 0 -110z"/>
</g>
</svg>
