<?xml version="1.0" standalone="no"?>
<!DOCTYPE svg PUBLIC "-//W3C//DTD SVG 20010904//EN"
 "http://www.w3.org/TR/2001/REC-SVG-20010904/DTD/svg10.dtd">
<svg version="1.0" xmlns="http://www.w3.org/2000/svg"
 width="806.000000pt" height="806.000000pt" viewBox="0 0 806.000000 806.000000"
 preserveAspectRatio="xMidYMid meet">
<metadata>
Created by potrace 1.11, written by Peter Selinger 2001-2013
</metadata>
<g transform="translate(0.000000,806.000000) scale(0.100000,-0.100000)"
fill="#000000" stroke="none">
<path d="M3065 7947 c-391 -190 -685 -461 -878 -809 -27 -48 -105 -228 -113
-257 -2 -9 -15 -61 -29 -116 -30 -116 -32 -131 -41 -245 -13 -154 -5 -273 25
-421 25 -119 72 -275 116 -384 12 -28 56 -157 62 -180 1 -5 20 -59 43 -120 22
-60 41 -117 43 -125 1 -8 5 -19 8 -25 3 -5 12 -30 19 -55 7 -25 17 -49 22 -54
4 -6 8 -20 8 -32 0 -13 5 -26 10 -29 6 -3 10 -16 10 -29 0 -12 4 -26 10 -32 5
-5 11 -22 12 -37 1 -15 5 -27 9 -27 4 0 10 -12 14 -27 3 -16 22 -73 42 -127
19 -55 36 -105 37 -110 1 -6 8 -21 14 -33 7 -13 11 -23 8 -23 -3 0 2 -17 10
-37 9 -20 18 -46 20 -57 2 -12 8 -30 13 -41 5 -11 24 -63 41 -115 18 -52 36
-104 40 -115 5 -11 32 -87 60 -170 28 -82 71 -205 95 -272 26 -74 41 -132 37
-145 -3 -12 -24 -61 -47 -108 -23 -47 -53 -110 -67 -140 -105 -223 -201 -427
-249 -527 -21 -46 -59 -104 -85 -132 -210 -225 -637 -140 -715 141 -9 32 -12
414 -14 1468 -1 784 -5 1435 -8 1448 -4 12 -9 30 -11 41 -4 18 -31 76 -62 133
-24 45 -126 144 -186 182 -128 81 -255 114 -415 111 -125 -3 -138 -5 -232 -34
-145 -45 -302 -171 -368 -297 -62 -116 -63 -130 -63 -757 l0 -569 72 6 c131
11 281 64 378 134 19 14 58 49 87 79 117 118 169 249 160 402 -5 98 -14 152
-28 166 -5 5 -9 15 -9 21 0 45 -137 210 -216 260 -50 32 -54 48 -23 111 52
108 202 163 335 122 74 -23 126 -65 155 -126 l23 -48 1 -1430 c2 -1541 -1
-1467 51 -1591 59 -142 204 -292 354 -368 30 -16 63 -33 74 -38 18 -9 102 -36
135 -43 9 -2 39 -9 66 -15 28 -7 106 -12 175 -12 l126 0 -7 -76 c-7 -74 -15
-104 -44 -172 -2 -3 -6 -15 -10 -27 -4 -13 -10 -23 -14 -23 -3 0 -12 -14 -20
-31 -17 -38 -111 -135 -173 -177 -61 -42 -155 -84 -238 -106 l-65 -17 2 -497
c0 -273 1 -504 2 -513 1 -14 13 -17 59 -19 77 -2 82 -2 82 -9 0 -3 14 -7 31
-8 39 -3 141 -39 199 -71 88 -48 165 -113 215 -182 36 -51 87 -140 79 -140 -2
0 0 -8 5 -19 13 -23 28 -98 30 -147 l1 -20 658 0 c586 0 658 2 663 15 4 9 4
21 1 26 -4 6 -8 19 -9 29 -7 43 -44 106 -90 154 -27 29 -52 52 -57 52 -4 0
-20 8 -34 18 -15 10 -54 27 -87 37 -52 17 -95 19 -335 20 l-276 1 -41 39 c-23
22 -83 78 -134 125 -224 208 -237 221 -265 278 -24 48 -31 80 -35 147 -6 91
81 230 175 280 l35 19 158 -78 c87 -43 166 -86 177 -95 10 -9 20 -15 22 -13 4
3 109 -47 144 -68 8 -5 38 -19 65 -32 28 -14 132 -66 232 -117 101 -51 191
-94 200 -96 10 -2 18 -4 18 -5 0 -6 84 -13 150 -13 314 0 529 279 405 528 -16
33 -61 94 -100 135 -91 96 -90 95 -136 160 -55 75 -105 160 -96 160 4 0 2 4
-4 8 -14 8 -63 113 -92 197 -32 90 -61 222 -66 297 -2 36 -6 70 -8 75 -6 10
-2 145 7 203 3 25 8 62 11 83 6 52 40 181 66 247 24 62 107 232 117 240 3 3
12 17 20 32 8 15 22 37 33 47 10 11 18 23 18 27 0 19 189 219 270 287 44 37
188 137 241 167 57 33 215 110 224 110 4 0 26 9 50 20 24 11 52 22 62 23 10 2
26 7 35 11 9 4 22 8 30 10 7 1 18 4 23 8 8 5 39 12 95 23 3 1 14 4 25 8 11 3
36 9 55 11 19 3 44 7 55 9 29 7 92 16 155 23 30 4 478 8 995 9 517 2 950 5
963 8 155 38 250 80 340 149 96 74 155 155 204 279 21 53 22 67 25 688 2 499
0 632 -10 628 -6 -2 -29 -10 -49 -18 -21 -7 -38 -17 -38 -21 0 -4 -6 -8 -13
-8 -22 0 -170 -96 -214 -140 -84 -80 -86 -91 -86 -375 -1 -137 -4 -252 -8
-255 -5 -4 -1374 -5 -1425 -1 -7 1 -14 35 -18 84 -8 99 -9 108 -20 125 -4 7
-6 16 -3 18 10 10 -82 224 -95 224 -5 0 -8 6 -8 13 0 35 -146 198 -240 268
-36 27 -70 53 -77 59 -7 5 -51 30 -99 55 -77 39 -177 74 -489 171 -44 14 -87
28 -95 31 -8 3 -24 8 -35 10 -11 2 -27 6 -35 10 -8 3 -17 7 -20 8 -13 3 -127
38 -140 43 -8 3 -19 6 -25 8 -5 1 -48 14 -95 29 -47 15 -94 29 -105 32 -11 3
-27 7 -35 11 -8 3 -17 6 -20 6 -15 3 -118 67 -135 84 -53 52 -90 116 -99 172
-13 75 -13 86 -5 107 l8 22 108 -36 c59 -19 115 -37 123 -41 8 -3 20 -6 25 -8
6 -1 48 -15 95 -29 205 -65 286 -73 398 -42 94 27 186 94 231 169 l23 38 -29
11 c-15 6 -48 17 -73 24 -25 7 -83 25 -130 39 -47 15 -89 28 -95 29 -112 29
-215 73 -255 109 -26 24 -88 101 -81 102 2 1 -2 19 -8 41 -31 116 35 242 158
305 98 49 189 54 306 18 89 -28 140 -43 145 -44 3 0 12 -3 20 -7 8 -3 49 -16
90 -27 41 -12 94 -28 118 -36 23 -8 44 -14 47 -14 6 0 18 62 20 105 1 22 -6
68 -17 103 -16 52 -30 74 -81 126 -69 71 -124 99 -252 132 -5 1 -48 14 -95 29
-47 15 -92 28 -100 30 -8 2 -15 4 -15 5 0 1 -7 3 -15 5 -21 4 -260 74 -290 85
-38 13 -169 51 -177 52 -5 0 -19 5 -33 10 -14 5 -32 11 -40 13 -22 6 -423 124
-579 172 -47 14 -89 26 -95 28 -6 1 -18 5 -26 8 -39 15 -169 50 -200 53 -27 3
-61 -9 -145 -49z"/>
<path d="M6444 7446 c-99 -88 -135 -237 -86 -349 19 -43 56 -98 92 -138 8 -9
38 -41 65 -70 28 -30 82 -90 120 -134 39 -43 80 -90 93 -103 12 -14 22 -28 22
-32 0 -4 -102 -74 -227 -156 -126 -81 -313 -204 -418 -273 -104 -69 -194 -128
-200 -131 -48 -24 -234 -155 -228 -160 4 -4 44 -31 88 -61 70 -48 230 -196
278 -257 33 -43 83 -117 110 -163 33 -59 94 -208 103 -254 3 -19 8 -35 11 -35
2 0 28 15 58 34 29 19 56 32 59 29 3 -4 6 -2 6 4 0 11 124 93 140 93 4 0 10 4
12 8 2 5 37 30 78 57 41 27 121 79 178 117 57 37 106 68 108 68 3 0 11 6 19
13 7 6 81 56 164 110 194 127 253 183 310 297 83 163 84 328 2 488 -35 67 -80
123 -271 332 -14 15 -40 45 -59 66 -18 22 -65 74 -104 117 -39 43 -80 88 -90
100 -10 12 -45 51 -77 87 -32 36 -67 74 -77 86 -10 11 -50 56 -90 100 -39 43
-86 96 -105 117 l-34 39 -50 -46z"/>
<path d="M5450 3020 c0 -4 -8 -7 -17 -7 -18 1 -124 -11 -173 -20 -14 -2 -36
-6 -50 -7 -14 -2 -32 -6 -40 -9 -8 -3 -31 -8 -50 -10 -19 -3 -84 -17 -145 -31
-60 -15 -119 -29 -130 -31 -11 -2 -20 -4 -20 -5 0 -1 -7 -3 -15 -5 -63 -16
-150 -41 -230 -67 -52 -16 -102 -31 -110 -33 -8 -2 -16 -4 -17 -5 -2 -2 -6 -3
-10 -4 -11 -2 -163 -56 -188 -66 -29 -13 -70 -24 -70 -19 -1 2 -12 -3 -25 -12
-14 -9 -56 -27 -95 -40 -38 -13 -72 -26 -75 -29 -3 -3 -32 -16 -65 -29 -33
-13 -80 -32 -105 -43 -24 -11 -55 -24 -67 -29 -21 -8 -32 -29 -15 -29 4 0 18
-18 32 -40 14 -22 28 -40 32 -40 4 0 10 -9 13 -20 3 -11 12 -26 19 -32 18 -19
126 -167 126 -173 0 -3 9 -15 20 -27 11 -12 32 -40 47 -62 15 -23 31 -43 34
-46 3 -3 18 -23 32 -45 l27 -40 83 -1 c121 -2 249 -41 351 -107 20 -12 45 -33
100 -85 31 -30 96 -126 101 -151 2 -9 8 -29 15 -46 6 -16 13 -48 16 -70 3 -22
7 -45 9 -52 2 -7 0 -15 -4 -18 -5 -3 -7 -13 -4 -23 10 -38 -36 -174 -74 -223
-12 -15 -2 -37 44 -94 5 -5 20 -26 33 -45 13 -19 28 -39 32 -45 73 -95 88
-116 88 -124 0 -5 3 -11 8 -13 9 -4 92 -115 92 -123 0 -4 6 -13 14 -20 14 -14
341 -460 361 -492 6 -9 16 -24 22 -32 7 -9 37 -50 67 -91 l55 -75 732 0 731
-1 -6 36 c-3 19 -7 42 -9 50 -26 109 -150 219 -284 251 -29 7 -151 13 -308 14
-143 2 -265 3 -271 4 -12 1 -9 -2 -268 356 -108 149 -199 275 -203 280 -17 22
-93 125 -151 205 -34 47 -68 93 -76 104 -14 17 -12 46 3 46 7 0 121 94 240
199 94 82 257 244 337 336 206 235 330 448 361 620 17 94 -2 223 -41 273 -43
56 -101 105 -159 136 -37 20 -67 33 -67 30 0 -4 -7 0 -17 7 -9 8 -19 13 -22
11 -3 -1 -26 2 -51 7 -25 6 -58 14 -75 18 -41 9 -475 12 -475 3z"/>
</g>
</svg>
